# xmcd
#
# Track frame offsets: 
#        150
#        14637
#        28470
#        41985
#        56162
#        69607
#        82455
#        95207
#        118190
#        131097
#        145050
#        157262
#        170460
#        183982
#        197547
#        210022
#        224292
#        237197
#        248932
#        262282
#        275822
#        290847
#        304510
#        317535
#        331282
#        345020
#
# Disc length: 4772 seconds
#
# Revision: 2
# Processed by: cddbd v1.4PL0 Copyright (c) Steve Scherf et al.
# Submitted via: ExactAudioCopy v0.90b4
#
DISCID=a412a21a
DTITLE=Wilf Carter - Montana Slim - Disc 5
DYEAR=1900
DGENRE=Country
TTITLE0=Pete Knight's Last Ride - 1937
TTITLE1=I Wish Had Niver Seen Sunshine - 1937
TTITLE2=Everybody's Been Some Mother's Darling - 1937
TTITLE3=You'll Always Be Mine In My Dreams - 1937
TTITLE4=Dusty Trails - 1937
TTITLE5=By The Grave Of Nobody's Darling - 1938
TTITLE6=What A Friend Be Have In Mother - 1938
TTITLE7=Martins And McCoys-Nobody's Darling But Mine-Yodelling Hillbil
TTITLE7=ly - 1938
TTITLE8=The Little Red Patch On The Seat Of My Trousers - 1938
TTITLE9=Golden Memories Of Mother And Dad - 1938
TTITLE10=My Honeymoon Bridge Broke Down - 1938
TTITLE11=Down The Yodelling Trail At Twilight - 1938
TTITLE12=I'm Only A Dude In Cowboy Clothes - 1938
TTITLE13=My Lulu - 1938
TTITLE14=Rootin' Tootin' Cowboy - 1938
TTITLE15=I'm Hitti' The Trail - 1938
TTITLE16=The Little Red Patch On The Seat Of My Trousers - 1938
TTITLE17=We'll Meet Again In Peaceful Valley - 1938
TTITLE18=My Brown Eyed Prairie Rose - 1938
TTITLE19=I'll Meet You At The Roundup In The Spring - 1938
TTITLE20=Dawn On The Prairie - 1938
TTITLE21=My Yodelling Sweetheart - 1938
TTITLE22=Yodelling Menories - 1938
TTITLE23=Cowboy'ss Airplane Ride - 1938
TTITLE24=Meories Of My Little Old Log Shack - 1938
TTITLE25=My Last Old Yodel Song - 1938
EXTD=
EXTT0=
EXTT1=
EXTT2=
EXTT3=
EXTT4=
EXTT5=
EXTT6=
EXTT7=
EXTT8=
EXTT9=
EXTT10=
EXTT11=
EXTT12=
EXTT13=
EXTT14=
EXTT15=
EXTT16=
EXTT17=
EXTT18=
EXTT19=
EXTT20=
EXTT21=
EXTT22=
EXTT23=
EXTT24=
EXTT25=
PLAYORDER=
